<svg width="1000" height="1000" viewBox="0 0 1000 1000" fill="none" xmlns="http://www.w3.org/2000/svg">
<rect width="1000" height="1000" fill="url(#paint0_linear_97_2992)"/>
<path d="M65.4502 197.375L413.287 148.461V491.95H65.4502V197.375Z" fill="white"/>
<path d="M460.024 141.939L945.909 73.4588V489.776H460.024V141.939Z" fill="white"/>
<path d="M64.3657 535.982L412.202 537.603V881.092L64.3657 833.273V535.982Z" fill="white"/>
<path d="M458.94 536.516L946.998 538.478V953.92L458.94 886.527V536.516Z" fill="white"/>
<path d="M134.377 387.064C145.247 389.42 154.758 390.597 162.911 390.597H165.9C170.067 390.235 172.875 388.604 174.324 385.706C175.955 382.807 176.77 378.821 176.77 373.749V227.82L223.239 223.744L250.413 237.332V395.76C250.413 431.812 235.105 451.197 204.488 453.914C198.872 454.458 193.528 454.729 188.455 454.729C183.926 454.729 179.668 454.548 175.683 454.186C171.697 453.824 168.164 453.371 165.085 452.827L137.638 439.24L134.377 387.064ZM179.487 230.266V373.749C179.487 379.727 178.491 384.437 176.498 387.88C174.505 391.141 171.063 392.952 166.172 393.315H162.911C159.287 393.315 155.03 393.043 150.139 392.499C145.247 391.956 140.99 391.322 137.366 390.597L140.356 436.794C142.892 437.156 145.881 437.519 149.323 437.881C152.765 438.243 156.66 438.425 161.008 438.425C166.081 438.425 171.425 438.153 177.042 437.609C206.028 435.254 220.521 416.775 220.521 382.173V226.733L179.487 230.266ZM273.019 439.24V385.977L321.934 381.629L349.109 395.217V448.751L300.194 452.827L273.019 439.24ZM275.737 388.423V436.251L319.216 432.718V384.619L275.737 388.423Z" fill="url(#paint1_linear_97_2992)"/>
<path d="M307.481 768.326C302.047 781.008 293.26 791.696 281.122 800.392C269.165 809.088 254.4 814.161 236.827 815.61C235.197 815.791 233.566 815.882 231.936 815.882C230.305 815.882 228.675 815.882 227.044 815.882C213.457 815.882 200.504 813.527 188.184 808.816C176.046 804.106 165.267 797.041 155.846 787.62C146.426 778.018 138.998 765.88 133.563 751.206C128.128 736.532 125.411 719.14 125.411 699.031C125.411 683.631 127.313 669.229 131.117 655.823C134.922 642.235 140.447 630.188 147.694 619.68C155.122 609.173 164.089 600.749 174.597 594.408C185.105 588.067 196.971 584.353 210.196 583.266C211.283 583.085 212.37 582.994 213.457 582.994C214.544 582.994 215.631 582.994 216.718 582.994C229.943 582.994 242.806 585.984 255.306 591.962C267.988 597.941 279.039 606.093 288.459 616.419C298.061 626.746 304.855 638.431 308.84 651.475L276.502 669.682L280.307 669.41L307.481 682.997V768.326ZM196.88 679.193V717.781L238.729 714.248V737.619C236.374 742.329 232.57 746.405 227.316 749.847C222.243 753.108 216.899 754.92 211.283 755.282C210.558 755.463 209.743 755.554 208.837 755.554C208.113 755.554 207.297 755.554 206.391 755.554C194.616 755.554 185.739 750.844 179.76 741.423C173.782 732.003 170.793 716.694 170.793 695.498C170.793 676.294 173.872 660.986 180.032 649.572C186.192 638.159 196.065 631.909 209.652 630.822H212.642C220.069 630.822 226.41 632.996 231.664 637.344C237.099 641.692 240.994 648.033 243.349 656.366L278.405 636.529C275.325 627.833 271.067 619.68 265.632 612.071C260.379 604.281 253.766 597.94 245.795 593.049C237.824 588.158 228.131 585.712 216.718 585.712C215.812 585.712 214.816 585.712 213.729 585.712C212.642 585.712 211.555 585.802 210.468 585.984C193.257 587.433 178.492 593.411 166.173 603.919C153.854 614.245 144.433 627.742 137.911 644.409C131.389 660.895 128.128 679.102 128.128 699.031C128.128 719.683 131.117 737.528 137.096 752.565C143.074 767.601 151.589 779.196 162.64 787.348C173.691 795.501 186.826 799.577 202.044 799.577C203.312 799.577 204.489 799.577 205.576 799.577C206.844 799.577 208.113 799.486 209.381 799.305C226.41 797.856 240.722 793.055 252.317 784.903C264.092 776.569 272.607 766.333 277.861 754.195V672.399L196.88 679.193ZM241.719 660.442C240.994 657.906 240.179 655.551 239.273 653.377C238.367 651.022 237.371 648.938 236.284 647.127C228.131 647.851 221.428 650.75 216.174 655.823C211.102 660.714 207.297 667.417 204.761 675.932L263.458 671.041L241.719 660.442ZM222.696 734.901L201.5 724.031C201.862 731.278 202.587 736.985 203.674 741.151C204.942 745.137 206.754 749.032 209.109 752.836C209.652 752.655 210.287 752.565 211.011 752.565C215.721 752.202 220.432 750.753 225.142 748.217C229.852 745.499 233.476 742.329 236.012 738.706V733.271L222.696 734.901Z" fill="url(#paint2_linear_97_2992)"/>
<path d="M661.403 867.305C659.882 867.523 658.251 867.631 656.512 867.631C654.99 867.631 653.468 867.631 651.947 867.631C640.642 867.631 630.207 866.001 620.641 862.74C611.293 859.696 602.163 856.109 593.249 851.979C569.988 840.457 552.922 824.261 542.052 803.39C531.4 782.303 526.073 757.302 526.073 728.388C526.073 711.431 528.139 695.017 532.269 679.147C536.617 663.06 543.03 648.603 551.509 635.777C559.987 622.733 570.531 612.08 583.14 603.819C595.967 595.558 610.967 590.667 628.142 589.145C629.881 588.927 631.511 588.819 633.033 588.819C634.555 588.819 636.077 588.819 637.598 588.819C648.468 588.819 658.142 590.232 666.621 593.058C675.1 595.667 683.687 598.71 692.383 602.189C708.035 608.493 721.079 617.841 731.514 630.233C741.949 642.625 749.776 657.19 754.993 673.93C760.211 690.452 762.82 708.17 762.82 727.084C762.82 744.693 760.754 761.541 756.624 777.629C752.493 793.716 746.189 808.282 737.71 821.326C729.449 834.152 718.905 844.587 706.079 852.631C693.47 860.892 678.578 865.783 661.403 867.305ZM628.468 847.739C645.207 846.435 659.773 841.87 672.165 834.043C684.556 826 694.774 815.673 702.818 803.064C710.861 790.238 716.84 775.998 720.753 760.346C724.884 744.476 726.949 727.953 726.949 710.779C726.949 695.126 725.101 680.234 721.405 666.104C717.927 651.755 712.492 639.038 705.1 627.95C697.709 616.863 688.361 608.167 677.056 601.863C665.969 595.341 652.816 592.08 637.598 592.08C636.077 592.08 634.555 592.08 633.033 592.08C631.729 592.08 630.207 592.188 628.468 592.406C611.728 593.927 597.162 598.71 584.771 606.754C572.379 614.58 562.053 624.907 553.792 637.733C545.53 650.342 539.335 664.473 535.204 680.126C531.291 695.561 529.334 711.648 529.334 728.388C529.334 744.693 531.182 760.128 534.878 774.694C538.574 789.042 544.117 801.76 551.509 812.847C558.9 823.717 568.248 832.304 579.553 838.609C590.858 844.913 604.01 848.066 619.011 848.066C620.75 848.066 622.381 848.066 623.902 848.066C625.424 848.066 626.946 847.957 628.468 847.739ZM628.468 797.194C627.598 797.194 626.728 797.303 625.859 797.521C625.207 797.521 624.446 797.521 623.576 797.521C610.532 797.521 600.206 791.868 592.597 780.564C585.205 769.259 581.51 750.345 581.51 723.823C581.51 704.909 583.575 689.691 587.706 678.169C591.836 666.647 597.488 658.169 604.663 652.734C611.837 647.081 619.772 643.929 628.468 643.277C629.337 643.277 630.207 643.277 631.076 643.277C631.946 643.059 632.816 642.951 633.685 642.951C646.512 642.951 656.512 648.494 663.686 659.582C670.86 670.452 674.447 689.148 674.447 715.67C674.447 743.932 670.099 764.367 661.403 776.976C652.925 789.368 641.946 796.107 628.468 797.194ZM627.489 793.934C640.316 792.847 650.751 786.325 658.795 774.368C667.056 762.411 671.186 742.845 671.186 715.67C671.186 703.279 670.425 692.735 668.904 684.039C667.382 675.343 665.099 668.278 662.056 662.843C660.969 662.625 659.882 662.517 658.795 662.517C657.708 662.299 656.621 662.19 655.534 662.19C642.707 662.19 633.142 668.93 626.837 682.408C620.533 695.67 617.38 714.909 617.38 740.128C617.38 752.737 618.25 763.498 619.989 772.411C621.728 781.107 624.228 788.281 627.489 793.934ZM782.398 851.327V791.325L810.768 789.042L785.007 776.324V603.493L834.247 598.928L866.857 615.232V788.064L844.03 790.346L869.466 803.064V863.392L815.008 867.631L782.398 851.327ZM788.268 606.428V772.737L830.986 768.824V602.515L788.268 606.428ZM785.659 794.26V847.739L833.595 844.152V790.346L785.659 794.26Z" fill="url(#paint3_linear_97_2992)"/>
<path d="M663.252 432.509L636.839 388.486V450.444L581.076 455.336L548.466 439.031V191.197L604.229 186.306L636.839 202.611V220.22L658.687 184.675L721.624 179.132L754.233 195.437L680.209 311.527L760.755 443.27L695.862 448.814L663.252 432.509ZM715.428 183.045L660.644 187.936L600.968 285.439V189.893L551.727 194.132V435.444L600.968 431.531V362.072L613.36 342.832L664.883 429.248L722.276 424.03L643.687 295.548L715.428 183.045ZM756.073 440.009V376.094L814.77 370.877L847.38 387.181V451.423L788.682 456.314L756.073 440.009ZM759.334 379.029V436.422L811.509 432.183V374.464L759.334 379.029Z" fill="url(#paint4_linear_97_2992)"/>
<path d="M62.9496 111.466L58.1162 107.765L61.817 102.932L66.6503 106.633L62.9496 111.466ZM64.4941 123.104L59.6608 119.403L63.3615 114.569L68.1949 118.27L64.4941 123.104ZM73.4142 123.893L71.7222 120.96C72.1035 120.462 72.5245 119.867 72.9852 119.174C73.4683 118.452 73.8998 117.539 74.2798 116.436C74.6563 115.307 74.9028 113.893 75.0193 112.193C75.1358 110.493 75.0328 108.428 74.7101 105.997C74.3841 103.54 73.9388 101.573 73.3742 100.095C72.8321 98.5884 72.2294 97.4183 71.5662 96.5853C70.9288 95.7488 70.3043 95.1079 69.6926 94.6628C69.0809 94.2177 68.5406 93.8157 68.072 93.4568L68.9402 90.1836C69.3281 90.1321 69.9013 90.1876 70.6597 90.3501C71.444 90.5092 72.3204 90.8666 73.2889 91.4223C74.254 91.9521 75.218 92.7715 76.1811 93.8806C77.1441 94.9897 78.0112 96.4667 78.7824 98.3118C79.5536 100.157 80.1228 102.463 80.4901 105.23C80.8573 107.997 80.9145 110.411 80.6615 112.471C80.4086 114.531 79.9705 116.286 79.3473 117.737C78.7207 119.163 78.0192 120.322 77.2429 121.214C76.4666 122.107 75.7241 122.758 75.0153 123.168C74.3358 123.6 73.8021 123.842 73.4142 123.893ZM70.3985 170.565L67.778 150.82L63.123 151.438L62.3044 145.27L73.8911 142.154L74.5879 144.43L74.7148 148.36L77.5362 169.618L70.3985 170.565ZM93.4261 167.904C91.2279 168.196 89.1895 168.006 87.3108 167.334C85.458 166.659 83.8917 165.366 82.612 163.457C81.3288 161.522 80.4556 158.809 79.9922 155.318C79.5323 151.853 79.671 149.031 80.4085 146.855C81.1424 144.652 82.3157 142.983 83.9283 141.848C85.5633 140.683 87.4798 139.955 89.678 139.664C91.9021 139.368 93.9422 139.571 95.7985 140.272C97.6547 140.973 99.2244 142.291 100.508 144.227C101.787 146.136 102.655 148.81 103.112 152.25C103.568 155.689 103.43 158.51 102.696 160.713C101.962 162.916 100.79 164.597 99.181 165.758C97.5684 166.894 95.6501 167.609 93.4261 167.904ZM92.5303 161.154C93.9267 160.969 94.902 160.287 95.4561 159.108C96.0361 157.926 96.1441 155.964 95.7803 153.223C95.4165 150.481 94.8005 148.616 93.9322 147.626C93.0898 146.632 91.9703 146.228 90.5739 146.413C89.2032 146.595 88.2296 147.29 87.6531 148.498C87.0766 149.707 86.9668 151.655 87.3238 154.345C87.6807 157.034 88.2951 158.887 89.1668 159.903C90.0385 160.919 91.1596 161.336 92.5303 161.154ZM119.641 164.425C117.442 164.716 115.404 164.526 113.525 163.855C111.673 163.179 110.106 161.887 108.827 159.978C107.543 158.043 106.67 155.33 106.207 151.839C105.747 148.373 105.886 145.552 106.623 143.375C107.357 141.173 108.53 139.504 110.143 138.369C111.778 137.204 113.694 136.476 115.893 136.184C118.117 135.889 120.157 136.092 122.013 136.793C123.869 137.494 125.439 138.812 126.722 140.747C128.002 142.656 128.87 145.331 129.326 148.77C129.783 152.21 129.644 155.031 128.91 157.234C128.176 159.436 127.005 161.118 125.396 162.279C123.783 163.414 121.865 164.129 119.641 164.425ZM118.745 157.675C120.141 157.49 121.117 156.807 121.671 155.629C122.251 154.446 122.359 152.485 121.995 149.743C121.631 147.002 121.015 145.136 120.147 144.146C119.304 143.153 118.185 142.749 116.788 142.934C115.418 143.116 114.444 143.811 113.868 145.019C113.291 146.227 113.181 148.176 113.538 150.866C113.895 153.555 114.51 155.408 115.381 156.424C116.253 157.44 117.374 157.857 118.745 157.675ZM140.01 146.05C138.303 146.276 136.869 146.177 135.707 145.752C134.542 145.302 133.637 144.632 132.993 143.744C132.349 142.856 131.948 141.817 131.79 140.627C131.632 139.438 131.748 138.33 132.138 137.305C132.529 136.279 133.229 135.41 134.24 134.697C135.247 133.958 136.604 133.475 138.311 133.249C139.992 133.025 141.415 133.139 142.58 133.59C143.741 134.015 144.644 134.671 145.289 135.559C145.959 136.444 146.373 137.481 146.531 138.671C146.688 139.861 146.559 140.97 146.143 141.999C145.753 143.024 145.054 143.907 144.047 144.645C143.036 145.359 141.691 145.827 140.01 146.05ZM136.959 161.731L136.65 159.404L147.963 143.81L153.646 131.608L160.861 130.65L161.17 132.978L150.528 147.377L144.174 160.774L136.959 161.731ZM139.443 141.783C140.064 141.7 140.501 141.524 140.755 141.253C141.031 140.954 141.185 140.63 141.218 140.284C141.277 139.934 141.289 139.63 141.255 139.371C141.221 139.113 141.129 138.822 140.981 138.5C140.859 138.174 140.627 137.915 140.286 137.723C139.967 137.503 139.498 137.433 138.877 137.516C138.256 137.598 137.808 137.789 137.532 138.089C137.278 138.359 137.122 138.67 137.063 139.02C137.03 139.366 137.031 139.669 137.065 139.927C137.1 140.186 137.178 140.478 137.3 140.804C137.448 141.126 137.682 141.398 138.001 141.619C138.342 141.81 138.823 141.865 139.443 141.783ZM159.122 159.185C157.415 159.411 155.981 159.312 154.819 158.887C153.654 158.437 152.749 157.767 152.105 156.879C151.457 155.965 151.056 154.926 150.902 153.762C150.744 152.573 150.86 151.465 151.25 150.44C151.641 149.414 152.341 148.545 153.352 147.832C154.359 147.093 155.716 146.61 157.423 146.383C159.104 146.16 160.527 146.274 161.692 146.725C162.854 147.15 163.757 147.806 164.401 148.694C165.071 149.579 165.485 150.616 165.643 151.806C165.797 152.97 165.668 154.079 165.255 155.134C164.865 156.159 164.166 157.041 163.159 157.78C162.149 158.493 160.803 158.962 159.122 159.185ZM158.556 154.918C159.176 154.835 159.613 154.659 159.867 154.388C160.143 154.088 160.297 153.765 160.33 153.419C160.389 153.069 160.401 152.765 160.367 152.506C160.333 152.247 160.242 151.957 160.094 151.634C159.971 151.309 159.74 151.05 159.398 150.858C159.08 150.637 158.61 150.568 157.989 150.651C157.369 150.733 156.92 150.924 156.644 151.224C156.391 151.494 156.234 151.805 156.176 152.154C156.143 152.501 156.143 152.803 156.178 153.062C156.212 153.321 156.29 153.613 156.412 153.939C156.56 154.261 156.794 154.533 157.113 154.754C157.454 154.945 157.935 155 158.556 154.918ZM188.221 155.323C186.437 155.559 184.781 155.476 183.254 155.074C181.753 154.668 180.483 153.823 179.444 152.54C178.431 151.253 177.767 149.42 177.451 147.041C177.132 144.636 177.334 142.688 178.057 141.197C178.777 139.681 179.821 138.529 181.191 137.742C182.56 136.955 184.059 136.453 185.688 136.237C187.111 136.048 188.333 135.939 189.355 135.908C190.404 135.875 191.101 135.874 191.447 135.907L194.926 138.919L192.384 143.559L187.573 141.514C185.349 141.809 184.419 143.327 184.783 146.068C184.971 147.491 185.447 148.493 186.208 149.076C186.966 149.634 188.044 149.82 189.44 149.634C190.837 149.449 192.065 149.089 193.126 148.553C194.186 148.018 195.005 147.541 195.581 147.122L196.322 152.708C195.575 153.228 194.563 153.731 193.285 154.216C192.03 154.672 190.342 155.041 188.221 155.323ZM209.408 152.511C206.253 152.929 203.709 152.504 201.777 151.234C199.846 149.964 198.657 147.648 198.211 144.286C197.761 140.898 198.305 138.352 199.842 136.648C201.375 134.918 203.72 133.844 206.875 133.425C210.107 132.996 212.651 133.422 214.505 134.702C216.381 135.953 217.545 138.273 217.994 141.66C218.44 145.022 217.923 147.565 216.441 149.288C214.985 151.007 212.64 152.082 209.408 152.511ZM208.738 147.468C209.799 147.327 210.484 146.841 210.795 146.011C211.102 145.154 211.162 144.015 210.973 142.592C210.781 141.144 210.426 140.059 209.91 139.338C209.393 138.618 208.604 138.327 207.544 138.468C206.458 138.612 205.746 139.102 205.41 139.936C205.099 140.766 205.04 141.906 205.232 143.354C205.421 144.776 205.775 145.861 206.295 146.608C206.838 147.325 207.652 147.612 208.738 147.468ZM219.598 134.539L220.486 132.013L226.266 131.246L226.488 132.914L226.868 133.101C227.118 132.804 227.466 132.456 227.913 132.054C228.382 131.623 228.96 131.218 229.646 130.837C230.333 130.457 231.129 130.206 232.034 130.086C234.723 129.729 236.768 130.366 238.169 131.996C238.549 131.287 239.166 130.587 240.022 129.894C240.899 129.173 242.179 128.7 243.86 128.477C246.187 128.168 248.021 128.596 249.359 129.76C250.698 130.925 251.525 132.697 251.841 135.076L252.5 140.041L253.83 143.812L253.329 146.287L246.347 147.213L244.993 137.011C244.862 136.029 244.543 135.308 244.034 134.849C243.549 134.361 242.853 134.177 241.948 134.297C241.353 134.376 240.865 134.664 240.484 135.162C240.103 135.66 239.957 136.245 240.046 136.918L241.498 147.857L234.515 148.784L233.166 138.62C233.036 137.638 232.717 136.917 232.208 136.458C231.722 135.97 231.027 135.786 230.122 135.906L227.815 136.962L229.472 149.453L222.49 150.38L220.94 138.703L219.598 134.539ZM259.274 155.09L256.469 133.949L255.126 129.785L256.015 127.259L261.795 126.492L262.016 128.16L262.43 128.302C262.43 128.302 262.637 128.077 263.051 127.628C263.465 127.178 264.049 126.719 264.802 126.25C265.578 125.753 266.51 125.432 267.596 125.287C269.897 124.982 271.793 125.48 273.281 126.783C274.796 128.082 275.764 130.322 276.186 133.503C276.502 135.882 276.422 137.853 275.945 139.417C275.49 140.951 274.75 142.115 273.724 142.909C272.698 143.703 271.499 144.191 270.129 144.373C268.267 144.62 266.929 144.653 266.115 144.471C265.324 144.26 264.929 144.155 264.929 144.155L266.257 154.163L259.274 155.09ZM266.126 139.496C267.109 139.366 267.851 138.912 268.353 138.135C268.881 137.354 269.051 136.252 268.862 134.83C268.677 133.434 268.296 132.445 267.718 131.863C267.141 131.282 266.374 131.055 265.417 131.182L263.353 132.285L264.275 139.229C264.275 139.229 264.416 139.302 264.699 139.449C265.004 139.566 265.48 139.582 266.126 139.496ZM280.792 142.642L277.931 121.389L276.641 117.613L277.146 115.178L284.129 114.251L287.774 141.715L280.792 142.642ZM301.394 140.302C299.403 140.567 297.592 140.504 295.961 140.115C294.331 139.727 292.983 138.892 291.918 137.612C290.854 136.333 290.164 134.503 289.848 132.124C289.621 130.417 289.712 128.918 290.119 127.627C290.553 126.333 291.211 125.245 292.094 124.365C292.974 123.459 293.999 122.757 295.17 122.259C296.338 121.736 297.568 121.388 298.861 121.217C301.085 120.922 302.821 120.915 304.069 121.197C305.343 121.475 306.191 121.718 306.613 121.925L309.371 127.835L308.915 130.343L296.889 131.939C297.197 132.872 297.782 133.61 298.644 134.154C299.505 134.697 300.828 134.851 302.613 134.614C304.009 134.429 305.191 134.114 306.159 133.67C307.126 133.226 307.879 132.849 308.417 132.541L309.107 137.739C308.386 138.256 307.309 138.767 305.876 139.273C304.466 139.75 302.972 140.093 301.394 140.302ZM296.599 129.452L301.849 127.965L301.278 126.344C301.084 126.264 300.802 126.223 300.433 126.219C300.09 126.212 299.789 126.225 299.53 126.26C298.806 126.356 298.219 126.592 297.769 126.967C297.345 127.339 297.032 127.762 296.832 128.236C296.654 128.681 296.576 129.086 296.599 129.452ZM320.814 137.725C319.055 137.958 317.577 137.628 316.38 136.734C315.182 135.841 314.478 134.605 314.269 133.028L313.147 124.571L310.315 124.947L309.826 121.262L312.017 119.037L314.133 113.861L318.711 113.253L319.457 118.878L324.888 118.157L325.557 123.2L320.126 123.921L321.228 132.222L326.654 131.463L327.215 135.691C327.215 135.691 326.918 135.836 326.325 136.125C325.754 136.385 324.99 136.671 324.031 136.982C323.076 137.319 322.003 137.567 320.814 137.725ZM339.769 135.209C337.777 135.473 335.967 135.411 334.336 135.022C332.705 134.633 331.358 133.799 330.293 132.519C329.228 131.239 328.538 129.41 328.223 127.031C327.996 125.324 328.087 123.825 328.494 122.534C328.928 121.24 329.586 120.152 330.469 119.272C331.349 118.366 332.374 117.664 333.545 117.166C334.712 116.643 335.943 116.295 337.236 116.124C339.46 115.829 341.196 115.822 342.444 116.104C343.718 116.382 344.566 116.625 344.988 116.832L347.746 122.742L347.289 125.25L335.264 126.846C335.572 127.779 336.157 128.517 337.019 129.061C337.88 129.604 339.203 129.758 340.988 129.521C342.384 129.336 343.566 129.021 344.533 128.577C345.501 128.132 346.254 127.756 346.792 127.448L347.481 132.646C346.761 133.163 345.684 133.674 344.251 134.18C342.84 134.657 341.346 135 339.769 135.209ZM334.973 124.358L340.224 122.872L339.653 121.25C339.458 121.171 339.176 121.129 338.808 121.126C338.464 121.119 338.164 121.132 337.905 121.167C337.181 121.263 336.594 121.499 336.144 121.874C335.719 122.246 335.407 122.669 335.207 123.143C335.029 123.588 334.951 123.993 334.973 124.358Z" fill="white"/>
<defs>
<linearGradient id="paint0_linear_97_2992" x1="452.986" y1="-98.8636" x2="601.493" y2="986.108" gradientUnits="userSpaceOnUse">
<stop offset="0.533654" stop-color="#1C1C28"/>
<stop offset="1" stop-color="#424260"/>
</linearGradient>
<linearGradient id="paint1_linear_97_2992" x1="234.215" y1="81.3102" x2="334.032" y2="491.397" gradientUnits="userSpaceOnUse">
<stop offset="0.533654" stop-color="#1C1C28"/>
<stop offset="1" stop-color="#424260"/>
</linearGradient>
<linearGradient id="paint2_linear_97_2992" x1="209.124" y1="445.452" x2="316.219" y2="851.595" gradientUnits="userSpaceOnUse">
<stop offset="0.533654" stop-color="#1C1C28"/>
<stop offset="1" stop-color="#424260"/>
</linearGradient>
<linearGradient id="paint3_linear_97_2992" x1="680.072" y1="422.424" x2="770.072" y2="928.107" gradientUnits="userSpaceOnUse">
<stop offset="0.533654" stop-color="#1C1C28"/>
<stop offset="1" stop-color="#424260"/>
</linearGradient>
<linearGradient id="paint4_linear_97_2992" x1="675.723" y1="10.454" x2="774.923" y2="512.556" gradientUnits="userSpaceOnUse">
<stop offset="0.533654" stop-color="#1C1C28"/>
<stop offset="1" stop-color="#424260"/>
</linearGradient>
</defs>
</svg>
